# xmcd
#
# Track frame offsets: 
#        183
#        14473
#        29900
#        42855
#        58583
#        73580
#        86933
#        100173
#        113865
#        127763
#        141550
#        156440
#        170440
#        182500
#        196340
#        210695
#        224068
#        237235
#        251020
#        263598
#        276438
#        291353
#        305815
#        334183
#
# Disc length: 4649 seconds
#
# Revision: 0
# Processed by: cddbd v1.4PL0 Copyright (c) Steve Scherf et al.
# Submitted via: ExactAudioCopy v0.95a3
#
DISCID=80122718
DTITLE=Various Artist - Ladies Sing The Blues
DYEAR=1900
DGENRE=Blues
TTITLE0=The Blues I Love To Sing - Adelaide Hall
TTITLE1=Downhearted Blues - Mildred Bailey
TTITLE2=Hang Over Blues - Una Mae Carlisle
TTITLE3=My Man O'War - Lizzie Miles
TTITLE4=Electrician Blues - Lizzie Miles
TTITLE5=Don't You Leave Me Here - Laura Smith
TTITLE6=Hard Time Blues - Ida Cox
TTITLE7=Take Him Off My Mind - Ida Cox
TTITLE8=Evil Mama Blues - Ada Brown
TTITLE9=Break O' Day Blues - Ada Brown
TTITLE10=Freight Train Blues - Trixie Smith
TTITLE11=Moaning The Blues - Victoria Spivey
TTITLE12=Billie's Blues - Billie Holiday
TTITLE13=Long Gone Blues - Billie Holiday
TTITLE14=Let Your Linen Hang Low - Rosetta Howard
TTITLE15=Rosetta Blues - Rosetta Howard
TTITLE16=I'm A Mighty Tight Woman - Sippie Wallace
TTITLE17=Goin' Crazy With The Blues - Mamie Smith
TTITLE18=Cravin' A Man Blues - Lillian Glinn
TTITLE19=Jelly, Jelly, Look What You Done, Done - Clara Smith
TTITLE20=Booze And Blues - Ma Rainey
TTITLE21=Toad Frog Blues - Ma Rainey
TTITLE22=Empty Bed Blues (Parts 1 and 2) - Bessie Smith
TTITLE23=St. Louis Blues - Bessie Smith
EXTD=
EXTT0=
EXTT1=
EXTT2=
EXTT3=
EXTT4=
EXTT5=
EXTT6=
EXTT7=
EXTT8=
EXTT9=
EXTT10=
EXTT11=
EXTT12=
EXTT13=
EXTT14=
EXTT15=
EXTT16=
EXTT17=
EXTT18=
EXTT19=
EXTT20=
EXTT21=
EXTT22=
EXTT23=
PLAYORDER=
